<?xml version="1.0" encoding="UTF-8" standalone="no"?>
<svg
   xmlns:dc="http://purl.org/dc/elements/1.1/"
   xmlns:cc="http://creativecommons.org/ns#"
   xmlns:rdf="http://www.w3.org/1999/02/22-rdf-syntax-ns#"
   xmlns:svg="http://www.w3.org/2000/svg"
   xmlns="http://www.w3.org/2000/svg"
   viewBox="0 0 560 1048"
   height="1048"
   width="560"
   xml:space="preserve"
   id="svg2"
   version="1.1"><rect data-cheque-background="true" width="100%" height="100%" fill="#ffffff" /><metadata
     id="metadata8"><rdf:RDF><cc:Work
         rdf:about=""><dc:format>image/svg+xml</dc:format><dc:type
           rdf:resource="http://purl.org/dc/dcmitype/StillImage" /></cc:Work></rdf:RDF></metadata><defs
     id="defs6"><clipPath
       id="clipPath20"
       clipPathUnits="userSpaceOnUse"><path
         id="path18"
         d="M 0,0 H 98.25 V 30 H 0 Z" /></clipPath><clipPath
       id="clipPath32"
       clipPathUnits="userSpaceOnUse"><path
         id="path30"
         d="M 0,0 H 98.25 V 30 H 0 Z" /></clipPath><clipPath
       id="clipPath38"
       clipPathUnits="userSpaceOnUse"><path
         id="path36"
         d="M 0,0 H 98.25 V 30 H 0 Z" /></clipPath><clipPath
       id="clipPath168"
       clipPathUnits="userSpaceOnUse"><path
         id="path166"
         d="M 0,0 H 255 V 90 H 0 Z" /></clipPath><clipPath
       id="clipPath180"
       clipPathUnits="userSpaceOnUse"><path
         id="path178"
         d="M 0,0 H 255 V 90 H 0 Z" /></clipPath><clipPath
       id="clipPath186"
       clipPathUnits="userSpaceOnUse"><path
         id="path184"
         d="M 0,0 H 255 V 90 H 0 Z" /></clipPath></defs><g
     transform="matrix(1.3333333,0,0,-1.3333333,0,1048)"
     id="g10"><g
       transform="matrix(1.33,0,0,1.33,36,706)"
       id="g12"><g
         id="g14"><g
           clip-path="url(#clipPath20)"
           id="g16"><g
             transform="matrix(1,0,0,-1,0,30)"
             id="g22"><g
               id="g24"><g
                 id="g26"><g
                   clip-path="url(#clipPath32)"
                   id="g28"><g
                     clip-path="url(#clipPath38)"
                     id="g34"><g
                       id="g40"><path
                         id="path42"
                         style="fill:#101010;fill-opacity:1;fill-rule:nonzero;stroke:none"
                         d="m 29.6,7.5 c -3.15,0 -5.64,0.72 -7.37,1.91 -2.03,1.41 -3.09,3.48 -3.09,5.92 0,2.82 1.32,5.07 3.83,6.43 1.68,0.9 3.91,1.4 6.63,1.4 6.99,0 10.47,-3.21 10.47,-7.83 0,-4.62 -3.51,-7.83 -10.47,-7.83 z m 4.44,10.35 c -0.99,0.85 -2.54,1.22 -4.44,1.22 -1.91,0 -3.51,-0.45 -4.5,-1.32 -0.73,-0.67 -1.21,-1.52 -1.21,-2.42 0,-1.01 0.5,-1.88 1.27,-2.52 0.99,-0.85 2.54,-1.22 4.44,-1.22 1.91,0 3.51,0.45 4.5,1.33 0.74,0.66 1.22,1.51 1.22,2.41 0,1.01 -0.51,1.89 -1.27,2.52 z" /></g><g
                       id="g44"><path
                         id="path46"
                         style="fill:#101010;fill-opacity:1;fill-rule:nonzero;stroke:none"
                         d="M 46.55,7.82 H 41.8 v 14.97 h 4.75 z" /></g><g
                       id="g48"><path
                         id="path50"
                         style="fill:#101010;fill-opacity:1;fill-rule:nonzero;stroke:none"
                         d="m 69.02,7.5 c -6.8,0 -10.46,3.29 -10.46,7.83 0,4.54 3.71,7.84 10.49,7.84 6.2,0 9.53,-2.13 10.31,-5.5 h -5.51 c -0.2,0.34 -0.59,0.64 -1.09,0.85 -0.92,0.37 -2.19,0.58 -3.76,0.58 -2.8,0 -4.91,-0.95 -5.36,-2.57 h 15.8 c 0.05,-0.38 0.05,-0.8 0.05,-1.2 0,-4.51 -3.51,-7.83 -10.47,-7.83 z m -5.25,6.27 c 0.48,-1.12 2.16,-2.23 5.25,-2.23 3.1,0 4.55,1.06 5.16,2.23 z" /></g><g
                       id="g52"><path
                         id="path54"
                         style="fill:#101010;fill-opacity:1;fill-rule:nonzero;stroke:none"
                         d="M 91.42,7.82 H 79.98 v 4.15 h 6.69 v 10.82 h 4.75 V 11.97 h 6.71 V 7.82 Z" /></g><g
                       id="g56"><path
                         id="path58"
                         style="fill:#101010;fill-opacity:1;fill-rule:nonzero;stroke:none"
                         d="M 11.56,7.82 H 0 v 14.97 h 4.75 v -3.35 h 6.77 c 4.38,0 6.73,-2.51 6.73,-5.81 0,-3.31 -2.3,-5.81 -6.69,-5.81 z m -0.5,7.55 H 4.75 v -3.4 h 6.31 c 1.5,0 2.22,0.75 2.22,1.7 0,0.94 -0.77,1.69 -2.22,1.69 z" /></g><g
                       id="g60"><path
                         id="path62"
                         style="fill:#101010;fill-opacity:1;fill-rule:nonzero;stroke:none"
                         d="m 55.07,18.07 c -1.47,-1.3 -2.65,-2.54 -2.65,-3.3 0,-0.83 1.36,-2.01 2.73,-3.05 0.21,-0.16 0.42,-0.32 0.63,-0.48 0.95,-0.73 2.47,-1.93 4.39,-3.42 h -7.03 c -0.27,0.2 -0.35,0.26 -0.43,0.32 -2.23,1.7 -4.97,3.62 -4.97,6.84 0,2.92 2.25,4.75 4.62,6.86 0.41,0.37 0.84,0.75 1.16,1 h 7.03 l -4.07,-3.5 c -0.5,-0.45 -0.96,-0.87 -1.42,-1.27 z" /></g></g></g></g></g></g></g></g></g><g
       id="g64"><text
         id="text68"
         style="font-variant:normal;font-size:14px;font-family:RocketMono-Regular-Identity;-inkscape-font-specification:RocketMono-Regular-Identity-H;writing-mode:lr-tb;fill:#000000;fill-opacity:0.3;fill-rule:nonzero;stroke:none"
         transform="matrix(1,0,0,-1,36,671.87)"><tspan
           id="tspan66"
           y="0"
           x="0 6.5939999 14.77 20.65 29.106001 37.141998 43.021999 51.057999 59.514 67.550003 75.725998 81.690002 88.283997 96.515999 102.396 108.99 115.584 121.548 130.78799 140.364 146.328 156.814 166.082 174.62199">16.05.2026 18:11 ПО МСК </tspan></text>
</g><g
       id="g70"><text
         id="text74"
         style="font-variant:normal;font-size:19px;font-family:RocketSans-Wide-Identity;-inkscape-font-specification:RocketSans-Wide-Identity-H;writing-mode:lr-tb;fill:#000000;fill-opacity:1;fill-rule:nonzero;stroke:none"
         transform="matrix(1,0,0,-1,36,650.74)"><tspan
           id="tspan72"
           y="0"
           x="0 16.017 33.193001 38.513">50 ₽</tspan></text>
</g><g
       id="g76"><text
         id="text80"
         style="font-variant:normal;font-size:14px;font-family:RocketMono-Regular-Identity;-inkscape-font-specification:RocketMono-Regular-Identity-H;writing-mode:lr-tb;fill:#000000;fill-opacity:0.3;fill-rule:nonzero;stroke:none"
         transform="matrix(1,0,0,-1,36,611.87)"><tspan
           id="tspan78"
           y="0"
           x="0 9.2399998 17.653999 26.348 34.762001 43.722 53.298 63.07 69.033997 78.274002 87.849998 93.814003 103.054 112.63 123.116 131.53 140.224 148.862 154.826 163.366 172.242 180.936 189.308 200.578">ПЕРЕВОД ПО НОМЕРУ КАРТЫ </tspan></text>
</g><g
       id="g82"><text
         id="text86"
         style="font-variant:normal;font-size:14px;font-family:RocketMono-Regular-Identity;-inkscape-font-specification:RocketMono-Regular-Identity-H;writing-mode:lr-tb;fill:#101010;fill-opacity:1;fill-rule:nonzero;stroke:none"
         transform="matrix(1,0,0,-1,36,592.5)"><tspan
           id="tspan84"
           y="0"
           x="0 9.2399998 18.816 28.056 37.632 47.152 56.391998 64.806 74.045998 83.286003">ПОПОЛНЕНИЕ</tspan></text>
</g><g
       id="g88"><text
         id="text92"
         style="font-variant:normal;font-size:14px;font-family:RocketMono-Regular-Identity;-inkscape-font-specification:RocketMono-Regular-Identity-H;writing-mode:lr-tb;fill:#000000;fill-opacity:0.3;fill-rule:nonzero;stroke:none"
         transform="matrix(1,0,0,-1,36,553.12)"><tspan
           id="tspan90"
           y="0"
           x="0 8.54 17.416 26.110001 34.481998 43.358002 49.321999 58.562 68.138 77.657997 86.295998 94.975998 103.852 112.224 120.638 130.158 138.838">КАРТА ПОЛУЧАТЕЛЯ </tspan></text>
</g><g
       id="g94"><text
         id="text98"
         style="font-variant:normal;font-size:14px;font-family:RocketMono-Regular-Identity;-inkscape-font-specification:RocketMono-Regular-Identity-H;writing-mode:lr-tb;fill:#101010;fill-opacity:1;fill-rule:nonzero;stroke:none"
         transform="matrix(1,0,0,-1,36,533.75)"><tspan
           id="tspan96"
           y="0"
           x="0 8.0360003 16.072001 24.528 32.984001 38.948002 45.948002 52.948002 59.948002 66.947998 72.912003 79.912003 86.912003 93.912003 100.912 106.876 113.47 121.548 129.584">2200 **** **** 1928</tspan></text>
</g><g
       id="g100"><text
         id="text104"
         style="font-variant:normal;font-size:14px;font-family:RocketMono-Regular-Identity;-inkscape-font-specification:RocketMono-Regular-Identity-H;writing-mode:lr-tb;fill:#000000;fill-opacity:0.3;fill-rule:nonzero;stroke:none"
         transform="matrix(1,0,0,-1,36,494.37)"><tspan
           id="tspan102"
           y="0"
           x="0 8.96 17.836 27.076 35.616001 41.580002 50.82 60.396 69.916 78.554001 87.234001 96.110001 104.482 112.896 122.416 131.09599">БАНК ПОЛУЧАТЕЛЯ </tspan></text>
</g><g
       id="g106"><text
         id="text110"
         style="font-variant:normal;font-size:14px;font-family:RocketMono-Regular-Identity;-inkscape-font-specification:RocketMono-Regular-Identity-H;writing-mode:lr-tb;fill:#101010;fill-opacity:1;fill-rule:nonzero;stroke:none"
         transform="matrix(1,0,0,-1,36,474.99)"><tspan
           id="tspan108"
           y="0"
           x="0 8.6940002 18.27 26.809999 35.223999">РОКЕТ</tspan></text>
</g><g
       id="g112"><text
         id="text116"
         style="font-variant:normal;font-size:14px;font-family:RocketMono-Regular-Identity;-inkscape-font-specification:RocketMono-Regular-Identity-H;writing-mode:lr-tb;fill:#000000;fill-opacity:0.3;fill-rule:nonzero;stroke:none"
         transform="matrix(1,0,0,-1,36,435.62)"><tspan
           id="tspan114"
           y="0"
           x="0 8.54 18.115999 27.888 33.852001 42.728001 51.688 60.060001 69.636002 78.330002 87.57 96.529999 105.406 114.982 124.222 133.46201">КОД АВТОРИЗАЦИИ </tspan></text>
</g><g
       id="g118"><text
         id="text122"
         style="font-variant:normal;font-size:14px;font-family:RocketMono-Regular-Identity;-inkscape-font-specification:RocketMono-Regular-Identity-H;writing-mode:lr-tb;fill:#101010;fill-opacity:1;fill-rule:nonzero;stroke:none"
         transform="matrix(1,0,0,-1,36,416.24)"><tspan
           id="tspan120"
           y="0"
           x="0 8.1899996 16.422001 24.598 32.787998 40.866001">386393</tspan></text>
</g><g
       id="g124"><text
         id="text128"
         style="font-variant:normal;font-size:14px;font-family:RocketMono-Regular-Identity;-inkscape-font-specification:RocketMono-Regular-Identity-H;writing-mode:lr-tb;fill:#000000;fill-opacity:0.3;fill-rule:nonzero;stroke:none"
         transform="matrix(1,0,0,-1,36,376.87)"><tspan
           id="tspan126"
           y="0"
           x="0 10.486 18.9 30.52 39.48 48.355999 57.596001 66.136002 75.711998 84.671997 93.940002 102.48 111.72 120.96 126.924 135.464 145.03999 154.812 160.776 167.104 176.078 185.052 194.29201 200.62">МЕЖБАНКОВСКИЙ КОД (RRN) </tspan></text>
</g><g
       id="g130"><text
         id="text134"
         style="font-variant:normal;font-size:14px;font-family:RocketMono-Regular-Identity;-inkscape-font-specification:RocketMono-Regular-Identity-H;writing-mode:lr-tb;fill:#101010;fill-opacity:1;fill-rule:nonzero;stroke:none"
         transform="matrix(1,0,0,-1,36,357.49)"><tspan
           id="tspan132"
           y="0"
           x="0 8.1759996 14.77 22.959999 31.136 37.73 45.765999 53.998001 62.034 70.112 78.148003 86.155998">613615859247</tspan></text>
</g><g
       id="g136"><text
         id="text140"
         style="font-variant:normal;font-size:14px;font-family:RocketMono-Regular-Identity;-inkscape-font-specification:RocketMono-Regular-Identity-H;writing-mode:lr-tb;fill:#000000;fill-opacity:0.3;fill-rule:nonzero;stroke:none"
         transform="matrix(1,0,0,-1,36,318.11)"><tspan
           id="tspan138"
           y="0"
           x="0 9.2679996 17.639999 26.516001 34.888 43.526001 52.793999">СТАТУС </tspan></text>
</g><g
       id="g142"><text
         id="text146"
         style="font-variant:normal;font-size:14px;font-family:RocketMono-Regular-Identity;-inkscape-font-specification:RocketMono-Regular-Identity-H;writing-mode:lr-tb;fill:#101010;fill-opacity:1;fill-rule:nonzero;stroke:none"
         transform="matrix(1,0,0,-1,36,298.74)"><tspan
           id="tspan144"
           y="0"
           x="0 8.6379995 17.906 27.146 35.560001 47.040001 56.279999">УСПЕШНО</tspan></text>
</g><g
       id="g148"><text
         id="text152"
         style="font-variant:normal;font-size:14px;font-family:RocketMono-Regular-Identity;-inkscape-font-specification:RocketMono-Regular-Identity-H;writing-mode:lr-tb;fill:#000000;fill-opacity:0.3;fill-rule:nonzero;stroke:none"
         transform="matrix(1,0,0,-1,36,259.36)"><tspan
           id="tspan150"
           y="0"
           x="0 9.2399998 18.816 29.302 37.716 46.41 52.374001 62.146 71.722 80.262001 88.900002 99.386002 107.8 117.04 125.412 134.28799">НОМЕР ДОКУМЕНТА </tspan></text>
</g><g
       id="g154"><text
         id="text158"
         style="font-variant:normal;font-size:14px;font-family:RocketMono-Regular-Identity;-inkscape-font-specification:RocketMono-Regular-Identity-H;writing-mode:lr-tb;fill:#101010;fill-opacity:1;fill-rule:nonzero;stroke:none"
         transform="matrix(1,0,0,-1,36,239.99)"><tspan
           id="tspan156"
           y="0"
           x="0 8.3719997 14.966 21.559999 29.736 37.771999 46.228001 54.306 60.900002 69.132004 77.307999 85.344002">T11650918620</tspan></text>
</g><g
       transform="matrix(1.33,0,0,1.38,36,70.74)"
       id="g160"><g
         id="g162"><g
           clip-path="url(#clipPath168)"
           id="g164"><g
             transform="matrix(1,0,0,-1,0,90)"
             id="g170"><g
               id="g172"><g
                 id="g174"><g
                   clip-path="url(#clipPath180)"
                   id="g176"><g
                     clip-path="url(#clipPath186)"
                     id="g182"><g
                       id="g188"><path
                         id="path190"
                         style="fill:none;stroke:#000000;stroke-width:1.5;stroke-linecap:butt;stroke-linejoin:miter;stroke-miterlimit:10;stroke-dasharray:3.75, 3.75;stroke-dashoffset:0;stroke-opacity:0.3"
                         d="m 3.75,0.75 h 247.5 c 1.66,0 3,1.34 3,3 v 82.5 c 0,1.66 -1.34,3 -3,3 H 3.75 c -1.66,0 -3,-1.34 -3,-3 V 3.75 c 0,-1.66 1.34,-3 3,-3 z" /></g><g
                       id="g192"><path
                         id="path194"
                         style="fill:#000000;fill-opacity:0.3;fill-rule:nonzero;stroke:none"
                         d="M 202.05,63.19 V 59.4 h -3.5 v 3.79 h -2.43 v -9.28 h 2.43 v 3.56 h 3.5 v -3.56 h 2.42 v 9.28 z m -10.3,-2.64 c -0.27,0.61 -0.93,0.96 -1.89,0.96 -1.26,0 -2.06,-0.86 -2.1,-2.24 v -0.12 h 6.31 v -0.76 c 0,-2.93 -1.59,-4.68 -4.31,-4.68 -2.72,0 -4.41,1.86 -4.41,4.89 0,3.02 1.64,4.8 4.45,4.8 2.25,0 3.84,-1.11 4.2,-2.85 z m -1.98,-4.97 c 1.14,0 1.88,0.77 1.93,2 h -3.92 c 0.07,-1.2 0.87,-2 1.99,-2 z m -14.03,10.01 v -2.4 H 182 v 2.4 h 2.21 v -4.32 h -1.37 v -7.36 h -7.29 l -0.3,4.65 c -0.07,1.26 -0.34,2.32 -1.01,2.71 h -0.71 v 4.32 z m 4.67,-4.32 h -3.65 v -0.16 c 0.37,-0.58 0.58,-1.43 0.65,-2.37 l 0.21,-2.91 h 2.79 z m -10.23,-0.72 c -0.25,0.61 -0.91,0.96 -1.87,0.96 -1.26,0 -2.06,-0.86 -2.1,-2.24 v -0.12 h 6.31 v -0.76 c 0,-2.93 -1.6,-4.68 -4.31,-4.68 -2.7,0 -4.41,1.86 -4.41,4.89 0,3.02 1.64,4.8 4.45,4.8 2.25,0 3.84,-1.11 4.2,-2.85 z m -1.96,-4.97 c 1.13,0 1.86,0.77 1.91,2 h -3.9 c 0.07,-1.2 0.87,-2 1.99,-2 z m -11.62,3.68 h 1.6 c 1.04,0 1.57,0.41 1.57,1.15 0,0.74 -0.49,1.16 -1.43,1.16 h -1.74 z m 0,-3.74 h 1.56 c 0.88,0 1.3,0.43 1.3,1.1 0,0.66 -0.47,1.1 -1.44,1.1 h -1.42 z m 2.28,7.67 c 2.09,0 3.37,-1.07 3.37,-2.63 0,-1.16 -0.83,-2.03 -2.06,-2.14 v -0.15 c 0.97,-0.16 1.65,-1 1.65,-2.01 0,-1.43 -1.12,-2.35 -3.03,-2.35 h -4.6 v 9.28 z m -11.23,-1.8 c -1.29,0 -2.02,-1.03 -2.02,-2.84 0,-1.82 0.73,-2.84 2.02,-2.84 1.29,0 2.03,1.05 2.03,2.84 0,1.78 -0.73,2.84 -2.03,2.84 z m 0,2.01 c 2.83,0 4.52,-1.82 4.52,-4.85 0,-3.04 -1.72,-4.84 -4.52,-4.84 -2.81,0 -4.51,1.84 -4.51,4.84 0,3 1.69,4.85 4.51,4.85 z m -10.68,-2.11 c -1.28,0 -2.09,-1.03 -2.09,-2.73 0,-1.7 0.81,-2.75 2.1,-2.75 1.29,0 2.07,1.04 2.07,2.74 0,1.69 -0.77,2.74 -2.08,2.74 z m 0.82,-7.53 c -1.27,0 -2.3,0.62 -2.81,1.67 h -0.15 v -1.52 h -2.35 v 12.36 h 2.43 v -4.49 h 0.15 c 0.45,0.98 1.46,1.55 2.78,1.55 2.3,0 3.7,-1.78 3.7,-4.78 0,-3 -1.43,-4.79 -3.75,-4.79 z m -10.21,9.43 H 130 v -9.28 h -8.28 v 9.28 h 2.43 v -7.35 h 3.43 z m -22.97,0 2.5,-3.89 h 0.52 v 3.89 h 2.36 V 59.3 h 0.54 l 2.49,3.89 h 2.81 l -3.36,-5.05 3.17,-4.23 h -2.69 l -2.45,3.65 h -0.51 v -3.65 h -2.36 v 3.65 h -0.49 l -2.45,-3.65 h -2.71 l 3.19,4.25 -3.37,5.03 z m -5.74,-2.64 c -0.25,0.61 -0.92,0.96 -1.87,0.96 -1.28,0 -2.07,-0.86 -2.1,-2.24 v -0.12 h 6.31 v -0.76 c 0,-2.93 -1.6,-4.68 -4.31,-4.68 -2.7,0 -4.42,1.86 -4.42,4.89 0,3.02 1.65,4.8 4.45,4.8 2.25,0 3.84,-1.11 4.2,-2.85 z M 96.9,55.58 c 1.14,0 1.87,0.77 1.92,2 H 94.9 c 0.09,-1.2 0.88,-2 2,-2 z m -5.5,-1.67 h -7.92 v 1.93 h 2.75 v 7.35 h 2.43 v -7.35 h 2.74 z m -14.81,9.42 c 1.19,0 2.19,-0.49 2.67,-1.35 h 0.15 v 1.21 h 2.34 v -6.33 c 0,-1.99 -1.37,-3.15 -3.81,-3.15 -2.3,0 -3.87,1.07 -4.02,2.79 h 2.24 c 0.19,-0.56 0.77,-0.85 1.65,-0.85 1,0 1.55,0.43 1.55,1.21 v 0.75 l -2.23,0.14 c -2.27,0.13 -3.55,1.12 -3.55,2.79 0,1.67 1.24,2.79 3.01,2.79 z m 0.8,-1.83 c -0.84,0 -1.43,-0.43 -1.43,-1.12 0,-0.68 0.5,-1.04 1.54,-1.12 l 1.86,-0.11 v 0.67 c 0,0.95 -0.85,1.68 -1.97,1.68 z m -10.85,-2.52 0.22,-3.14 h 2.4 v 7.35 h 2.42 v -9.28 h -6.91 l -0.27,4.65 -0.02,0.37 c -0.11,1.28 -0.41,2.17 -1.21,2.17 -0.24,0 -0.42,-0.04 -0.52,-0.06 v 2.15 c 0.12,0.04 0.39,0.12 0.77,0.12 2.18,0 2.94,-1.71 3.12,-4.33 z m -5.69,4.21 V 51.05 H 50.53 v 12.14 h 2.52 v -9.95 h 5.29 v 9.95 z" /></g><g
                       id="g196"><path
                         id="path198"
                         style="fill:#000000;fill-opacity:0.3;fill-rule:nonzero;stroke:none"
                         d="m 171.12,35.54 h -0.31 v 2.76 h -0.95 v -6.05 h 0.95 v 2.53 h 0.31 l 2.33,-2.53 h 1.15 l -2.68,2.86 2.79,3.19 h -1.23 z m -4.05,2.76 h 0.96 v -6.05 h -0.96 v 2.5 h -2.99 v -2.5 h -0.96 v 6.05 h 0.96 v -2.73 h 2.99 z m -8.58,0.1 c 0.79,0 1.45,-0.34 1.84,-0.99 h 0.09 v 0.89 h 0.91 v -4.14 c 0,-1.26 -0.82,-2.01 -2.28,-2.01 -1.27,0 -2.22,0.64 -2.35,1.61 h 0.96 c 0.14,-0.48 0.64,-0.76 1.36,-0.76 0.89,0 1.35,0.41 1.35,1.16 v 0.55 l -1.72,0.11 c -1.4,0.09 -2.19,0.7 -2.19,1.78 0,1.09 0.86,1.8 2.03,1.8 z m 0.17,-0.84 c -0.69,0 -1.21,-0.36 -1.21,-0.97 0,-0.61 0.4,-0.93 1.31,-1 l 1.61,-0.1 v 0.55 c 0,0.87 -0.72,1.52 -1.71,1.52 z m -8.15,-4.07 c 0.19,-1.5 0.64,-2.35 2.25,-2.41 l 0.61,-0.04 c 1.17,-0.05 1.51,-0.36 1.51,-0.36 v -0.86 l -0.12,0.06 c -0.23,0.07 -0.75,0.23 -1.44,0.26 l -0.6,0.03 c -2.39,0.11 -3.02,1.8 -3.02,4.58 0,2.49 1.01,3.65 2.79,3.65 1.79,0 2.78,-1.16 2.78,-3.06 0,-1.9 -1.06,-2.96 -2.64,-2.96 -1.01,0 -1.67,0.47 -2.02,1.11 z m 1.98,4.04 c -1.15,0 -1.8,-0.8 -1.8,-2.19 0,-1.39 0.65,-2.09 1.8,-2.09 1.15,0 1.8,0.75 1.8,2.09 0,1.34 -0.66,2.19 -1.8,2.19 z M 142.46,38.3 V 34 h 0.1 l 1.9,4.13 h 0.74 L 147.1,34 h 0.1 v 4.3 h 0.96 v -6.05 h -1.11 l -2.15,4.7 h -0.09 l -2.15,-4.7 h -1.15 v 6.05 z m -5.25,-0.77 c -1.13,0 -1.78,-0.82 -1.78,-2.25 0,-1.43 0.65,-2.26 1.78,-2.26 1.14,0 1.77,0.83 1.77,2.26 0,1.43 -0.64,2.25 -1.77,2.25 z m 0,0.87 c 1.71,0 2.76,-1.18 2.76,-3.12 0,-1.95 -1.05,-3.13 -2.76,-3.13 -1.7,0 -2.76,1.18 -2.76,3.13 0,1.94 1.06,3.12 2.76,3.12 z m -7.02,-2.86 2.33,2.76 h 1.24 l -2.79,-3.19 2.69,-2.86 h -1.16 l -2.31,2.53 h -0.32 v -2.53 h -0.96 v 6.05 h 0.96 v -2.76 z m -6.49,0.08 h 1.39 c 0.86,0 1.3,0.28 1.3,0.92 0,0.64 -0.39,0.96 -1.12,0.96 h -1.57 z m 0,-2.55 h 1.47 c 0.67,0 0.96,0.34 0.96,0.86 0,0.58 -0.34,0.89 -1.13,0.89 h -1.3 z m 1.59,5.23 c 1.29,0 2.05,-0.69 2.05,-1.74 0,-0.71 -0.48,-1.25 -1.24,-1.35 v -0.09 c 0.56,-0.11 0.98,-0.69 0.98,-1.29 0,-0.95 -0.66,-1.58 -1.8,-1.58 h -2.54 v 6.05 z m -6.83,-0.77 c -1.14,0 -1.79,-0.82 -1.79,-2.25 0,-1.43 0.65,-2.26 1.79,-2.26 1.13,0 1.77,0.83 1.77,2.26 0,1.43 -0.65,2.25 -1.77,2.25 z m 0,0.87 c 1.69,0 2.75,-1.18 2.75,-3.12 0,-1.95 -1.06,-3.13 -2.75,-3.13 -1.7,0 -2.77,1.18 -2.77,3.13 0,1.94 1.06,3.12 2.77,3.12 z m -7.31,0.09 c 1.71,0 2.97,-0.96 3.25,-2.45 h -1.02 c -0.26,0.95 -1.1,1.52 -2.23,1.52 -1.54,0 -2.5,-1.28 -2.5,-3.31 0,-2.03 0.96,-3.3 2.5,-3.3 1.1,0 1.96,0.65 2.23,1.7 h 1.02 c -0.24,-1.56 -1.56,-2.63 -3.25,-2.63 -2.17,0 -3.54,1.62 -3.54,4.23 0,2.62 1.37,4.24 3.54,4.24 z M 99.33,30.95 c 1.65,0 2.66,1.27 2.66,3.3 0,2.03 -1.01,3.31 -2.66,3.31 -1.64,0 -2.64,-1.3 -2.64,-3.31 0,-2 1.01,-3.3 2.64,-3.3 z m 0,-0.93 c -2.26,0 -3.68,1.63 -3.68,4.23 0,2.61 1.38,4.24 3.68,4.24 2.3,0 3.68,-1.66 3.68,-4.24 0,-2.57 -1.4,-4.23 -3.68,-4.23 z m -7.91,1.49 h 0.09 l 1.25,3.61 h -2.59 z m 2.44,6.79 h 1.05 l -2.95,-8.09 h -0.99 l -2.95,8.09 h 1.05 l 0.8,-2.31 h 3.19 z m -7.29,0 v -8.09 h -6.28 v 8.09 h 1.01 v -7.17 h 4.28 v 7.17 z" /></g></g></g></g></g></g></g></g></g></g></svg>