<svg width="40" height="40" viewBox="0 0 40 40" fill="none" xmlns="http://www.w3.org/2000/svg">
<rect width="40" height="40" fill="white"/>
<path fill-rule="evenodd" clip-rule="evenodd" d="M27.7223 33.0379C21.6284 36.4676 15.0213 37.0777 10.8021 35.027C16.4128 38.2823 23.3197 38.324 28.9744 35.1508C34.5666 32.0661 38.0091 26.1437 37.9484 19.7447C37.6665 24.3335 33.8085 29.5997 27.7223 33.0379ZM29.9083 6.04207C29.5446 5.44239 29.0447 4.92983 28.4445 4.55846C30.672 5.70728 32.6299 7.31607 34.1875 9.27882C34.4605 9.61556 34.7149 9.95936 34.9539 10.3218C35.5969 11.4257 35.8961 12.6907 35.8334 13.9716C35.6762 18.6304 31.4385 24.2784 24.7616 28.0353C18.0855 31.7916 10.951 32.5516 6.73303 30.3509C5.57106 29.7678 4.60141 28.8749 3.92324 27.7614L3.89578 27.7171C3.71938 27.372 3.56214 27.0275 3.41323 26.6742C2.42572 24.3669 1.96737 21.8755 2.06452 19.3732C2.10099 20.0814 2.30107 20.7697 2.65578 21.3797C4.81361 25.0212 12.6608 24.5433 20.1826 20.3103C27.714 16.0672 32.0661 9.68549 29.9083 6.04207ZM22.2803 3.78872C22.2101 3.69123 22.1372 3.5937 22.0593 3.5155C21.0372 2.68488 19.707 2.34104 18.412 2.56871C18.1666 2.58735 17.9001 2.61364 17.6374 2.65719C15.312 2.94973 13.0756 3.70024 11.0303 4.85033C8.99638 5.9818 7.2086 7.51099 5.77182 9.33277C5.61458 9.53414 5.46557 9.73814 5.31344 9.94146C4.45955 10.9139 4.09844 12.2225 4.32851 13.4938C4.36237 13.6002 4.40779 13.7164 4.45955 13.8132C5.6925 15.8992 10.6877 15.3527 15.6023 12.5758C20.5252 9.80993 23.5134 5.87536 22.2803 3.78872Z" fill="#313946"/>
</svg>
